<?xml version="1.0" encoding="UTF-8" standalone="yes"?>
<!DOCTYPE svg PUBLIC "-//W3C//DTD SVG 1.1//EN" "http://www.w3.org/Graphics/SVG/1.1/DTD/svg11.dtd">

<svg width="500" height="500" viewBox="0 0 500 500" xmlns="http://www.w3.org/2000/svg" xmlns:xlink="http://www.w3.org/1999/xlink" version="1.1" baseProfile="full">
    <g transform="scale(1.000000,-1.000000) translate(0,-500)">
        <path d="M 50.356220 271.120633 C 26.751072 271.120633 1.000000 246.151518 1.000000 221.182373 L 1.000000 1.000000 L 50.356220 1.000000 L 50.356220 103.146462 L 97.566521 103.146462 L 97.566521 1.000000 L 144.776825 1.000000 L 144.776825 221.182373 C 144.776825 246.151518 121.171677 271.120664 95.420601 271.120664 L 50.356220 271.120664 L 50.356220 271.120633 Z M 50.356220 155.354649 L 50.356220 223.452301 L 97.566521 223.452301 L 97.566521 155.354649 L 50.356220 155.354649 L 50.356220 155.354649 Z" transform="scale(1.000000,1.000000) translate(-1.000000,226.609425)" fill="#3eb3cb" opacity="1.000000"></path>
        <path d="M 50.356228 273.390576 C 24.605158 273.390576 1.000000 248.421431 1.000000 223.452301 L 1.000000 1.000000 L 48.210300 1.000000 L 48.210300 103.146462 L 95.420601 103.146462 C 119.025757 103.146462 144.776825 128.115600 144.776825 153.084737 L 144.776825 221.182373 C 144.776825 246.151518 121.995712 273.390576 96.244637 273.390576 L 88.973274 273.390576 L 50.356228 273.390576 Z M 48.210297 155.354649 L 48.210297 223.452301 L 95.420601 223.452301 L 95.420601 155.354649 L 48.210297 155.354649 L 48.210297 155.354649 Z" transform="scale(1.000000,1.000000) translate(177.111588,226.609425)" fill="#3eb3cb" opacity="1.000000"></path>
        <path d="M 50.356209 221.182373 L 50.356209 50.938267 L 1.000000 50.938267 L 1.000000 1.000000 L 146.922729 1.000000 L 146.922729 50.938267 L 99.712418 50.938267 L 99.712418 221.182373 L 146.922729 221.182373 L 146.922729 271.120633 L 1.000000 271.120633 L 1.000000 221.182373 Z" transform="scale(1.000000,1.000000) translate(353.077271,226.609425)" fill="#3eb3cb" opacity="1.000000"></path>
        <path d="M 1.000000 1.000000 L 1.000000 53.208191 L 33.188843 53.208191 Z" transform="scale(1.000000,1.000000) translate(48.356220,328.755887)" fill="#24a0c0" opacity="1.000000"></path>
        <path d="M 1.000000 1.000000 L 1.000000 53.208191 L 28.896999 53.208191 Z" transform="scale(1.000000,1.000000) translate(224.321884,328.755887)" fill="#24a0c0" opacity="1.000000"></path>
        <path d="M 1.000000 1.000000 L 1.000000 1.000000 L 1.000000 35.048818 L 50.356209 35.048818 Z" transform="scale(1.000000,1.000000) translate(402.433472,412.742987)" fill="#24a0c0" opacity="1.000000"></path>
        <path d="M 1.000000 154.747161 L 16.418841 154.747161 L 16.418841 91.217875 L 75.025774 91.217875 L 75.025774 154.747161 L 90.444616 154.747161 L 90.444616 1.000000 L 75.025774 1.000000 L 75.025774 72.902181 L 16.418841 72.902181 L 16.418841 1.000000 L 1.000000 1.000000 Z M 196.075168 154.747161 L 196.075168 136.431477 L 158.103402 136.431477 L 158.103402 1.000000 L 142.607846 1.000000 L 142.607846 136.431477 L 104.636080 136.431477 L 104.636080 154.747161 Z M 292.040198 154.747161 L 292.040198 136.431477 L 254.068417 136.431477 L 254.068417 1.000000 L 238.572876 1.000000 L 238.572876 136.431477 L 200.601095 136.431477 L 200.601095 154.747161 Z M 307.459033 154.747161 L 358.164760 154.747161 Q 373.200037 154.747161 382.405333 143.182109 Q 391.610598 131.617058 391.610598 110.684836 Q 391.610598 92.683125 383.402565 79.338841 Q 375.194532 65.994546 358.164760 65.994546 L 322.724457 65.994546 L 322.724457 1.000000 L 307.459033 1.000000 Z M 376.191763 110.580182 Q 376.191763 127.535280 366.986498 133.605620 Q 361.923571 136.850114 353.101864 136.850114 L 322.724457 136.850114 L 322.724457 83.577615 L 353.101864 83.577615 Q 363.381097 83.577615 369.786430 89.543296 Q 376.191763 95.508982 376.191763 110.580182 Z M 420.453804 1.000000 L 402.043243 1.000000 L 442.393061 79.809815 L 404.574706 154.747161 L 423.675647 154.747161 L 452.442148 95.927619 L 480.978501 154.747161 L 499.158916 154.747161 L 461.340592 79.809815 L 501.000000 1.000000 L 482.052470 1.000000 L 451.675032 64.215308 Z" transform="scale(1.000000,1.000000) translate(0.115530,-1.001574)" fill="#ffffff" opacity="1.000000"></path>
    </g>
</svg>